<svg width="414" height="152" viewBox="0 0 414 152" fill="none" xmlns="http://www.w3.org/2000/svg">
<path d="M0 0.181152H138.773V39.9369H94.1936V151.61H44.5799V39.9369H0V0.181152Z" fill="#E62B1E"/>
<path d="M141.866 151.61V0.19165H265.286V35.5208H191.49V57.1819H265.727V92.5214H191.49V116.28H265.37V151.61H141.866Z" fill="#E62B1E"/>
<path d="M268.494 151.61V0.19165H334.939C383.724 0.19165 414 22.9017 414 72.7485C414 129.739 382.256 151.61 333.681 151.61H268.494ZM318.118 116.28H328.636C351.76 116.28 364.376 104.081 364.376 75.4758C364.376 43.9334 354.067 35.5103 327.588 35.5103H318.118V116.28Z" fill="#E62B1E"/>
</svg>
