<svg width="1001" height="187" viewBox="0 0 1001 187" fill="none" xmlns="http://www.w3.org/2000/svg">
<path d="M80.3391 150.71H74.0833V144.977H80.3391V150.71ZM74.0833 153.538H80.3391V177.282H74.0833V153.538Z" fill="black"/>
<path d="M105.347 154.9C106.897 156.184 107.664 158.318 107.664 161.295V177.282H101.338V162.839C101.338 161.594 101.173 160.633 100.845 159.964C100.242 158.743 99.0987 158.129 97.4075 158.129C95.3326 158.129 93.8998 159.027 93.1325 160.807C92.7254 161.752 92.5297 162.957 92.5297 164.422V177.274H86.36V153.577H92.3339V157.034C93.1247 155.814 93.8763 154.94 94.5732 154.404C95.8416 153.443 97.4466 152.963 99.3805 152.963C101.816 152.971 103.804 153.617 105.347 154.9Z" fill="black"/>
<path d="M125.923 153.924C127.035 154.554 127.935 155.428 128.632 156.546V145.221H134.888V177.29H128.89V173.998C128.005 175.4 127.003 176.431 125.876 177.069C124.748 177.707 123.347 178.03 121.679 178.03C118.923 178.03 116.598 176.912 114.719 174.667C112.832 172.423 111.892 169.548 111.892 166.028C111.892 161.972 112.816 158.791 114.672 156.467C116.527 154.144 119.009 152.979 122.11 152.979C123.543 152.971 124.811 153.286 125.923 153.924ZM127.442 170.832C128.35 169.525 128.804 167.832 128.804 165.752C128.804 162.854 128.076 160.775 126.62 159.523C125.727 158.767 124.686 158.389 123.503 158.389C121.695 158.389 120.372 159.074 119.526 160.444C118.68 161.815 118.258 163.516 118.258 165.548C118.258 167.745 118.688 169.501 119.542 170.808C120.403 172.124 121.703 172.777 123.456 172.777C125.202 172.793 126.533 172.139 127.442 170.832Z" fill="black"/>
<path d="M155.878 154.018C157.53 154.766 158.885 155.932 159.958 157.53C160.921 158.94 161.547 160.578 161.837 162.437C162.001 163.531 162.072 165.099 162.04 167.146H144.847C144.94 169.532 145.77 171.202 147.313 172.155C148.26 172.753 149.395 173.045 150.719 173.045C152.12 173.045 153.271 172.683 154.14 171.958C154.626 171.572 155.048 171.021 155.416 170.32H161.719C161.555 171.73 160.795 173.163 159.433 174.612C157.319 176.92 154.352 178.077 150.554 178.077C147.415 178.077 144.643 177.109 142.239 175.155C139.836 173.202 138.638 170.036 138.638 165.65C138.638 161.539 139.718 158.381 141.887 156.192C144.056 153.994 146.867 152.892 150.327 152.892C152.386 152.9 154.234 153.278 155.878 154.018ZM146.647 159.381C145.778 160.279 145.23 161.507 145.003 163.051H155.636C155.526 161.405 154.978 160.153 153.991 159.302C153.013 158.452 151.791 158.019 150.335 158.019C148.746 158.027 147.516 158.475 146.647 159.381Z" fill="black"/>
<path d="M185.02 156.089C186.946 158.137 187.901 161.137 187.901 165.106C187.901 169.288 186.962 172.47 185.075 174.667C183.196 176.856 180.769 177.959 177.801 177.959C175.914 177.959 174.341 177.486 173.096 176.541C172.415 176.022 171.749 175.258 171.091 174.258V186.63H164.984V153.538H170.896V157.05C171.569 156.018 172.274 155.207 173.033 154.609C174.411 153.545 176.055 153.018 177.958 153.018C180.737 153.018 183.086 154.042 185.02 156.089ZM180.275 160.555C179.438 159.145 178.075 158.444 176.196 158.444C173.941 158.444 172.383 159.507 171.538 161.649C171.099 162.775 170.88 164.217 170.88 165.965C170.88 168.721 171.616 170.666 173.088 171.785C173.965 172.438 174.998 172.761 176.196 172.761C177.934 172.761 179.258 172.1 180.166 170.761C181.082 169.422 181.536 167.642 181.536 165.421C181.536 163.579 181.113 161.956 180.275 160.555Z" fill="black"/>
<path d="M207.632 154.018C209.284 154.766 210.638 155.932 211.711 157.53C212.674 158.94 213.3 160.578 213.59 162.437C213.754 163.531 213.825 165.099 213.794 167.146H196.6C196.694 169.532 197.524 171.202 199.066 172.155C200.014 172.753 201.149 173.045 202.472 173.045C203.874 173.045 205.025 172.683 205.894 171.958C206.379 171.572 206.802 171.021 207.17 170.32H213.473C213.308 171.73 212.549 173.163 211.186 174.612C209.072 176.92 206.105 178.077 202.308 178.077C199.168 178.077 196.396 177.109 193.993 175.155C191.589 173.202 190.391 170.036 190.391 165.65C190.391 161.539 191.472 158.381 193.64 156.192C195.809 153.994 198.62 152.892 202.081 152.892C204.14 152.9 205.988 153.278 207.632 154.018ZM198.401 159.381C197.532 160.279 196.984 161.507 196.757 163.051H207.389C207.279 161.405 206.731 160.153 205.745 159.302C204.766 158.452 203.545 158.019 202.088 158.019C200.507 158.027 199.27 158.475 198.401 159.381Z" fill="black"/>
<path d="M235.959 154.9C237.509 156.184 238.277 158.318 238.277 161.295V177.282H231.95V162.839C231.95 161.594 231.786 160.633 231.457 159.964C230.854 158.743 229.711 158.129 228.02 158.129C225.937 158.129 224.512 159.027 223.745 160.807C223.338 161.752 223.142 162.957 223.142 164.422V177.274H216.965V153.577H222.947V157.034C223.737 155.814 224.489 154.94 225.186 154.404C226.446 153.443 228.059 152.963 229.993 152.963C232.428 152.971 234.409 153.617 235.959 154.9Z" fill="black"/>
<path d="M256.527 153.924C257.639 154.554 258.547 155.428 259.236 156.546V145.221H265.492V177.29H259.495V173.998C258.61 175.4 257.608 176.431 256.488 177.069C255.361 177.707 253.959 178.03 252.284 178.03C249.528 178.03 247.21 176.912 245.323 174.667C243.436 172.423 242.497 169.548 242.497 166.028C242.497 161.972 243.421 158.791 245.284 156.467C247.14 154.144 249.614 152.979 252.722 152.979C254.147 152.971 255.415 153.286 256.527 153.924ZM258.046 170.832C258.954 169.525 259.409 167.832 259.409 165.752C259.409 162.854 258.68 160.775 257.224 159.523C256.332 158.767 255.29 158.389 254.108 158.389C252.299 158.389 250.976 159.074 250.131 160.444C249.285 161.815 248.862 163.516 248.862 165.548C248.862 167.745 249.293 169.501 250.146 170.808C251.007 172.124 252.307 172.777 254.053 172.777C255.807 172.793 257.13 172.139 258.046 170.832Z" fill="black"/>
<path d="M286.483 154.018C288.135 154.766 289.49 155.932 290.562 157.53C291.525 158.94 292.152 160.578 292.442 162.437C292.606 163.531 292.676 165.099 292.645 167.146H275.459C275.553 169.532 276.383 171.202 277.926 172.155C278.865 172.753 280 173.045 281.331 173.045C282.733 173.045 283.884 172.683 284.761 171.958C285.246 171.572 285.669 171.021 286.029 170.32H292.332C292.167 171.73 291.408 173.163 290.046 174.612C287.932 176.92 284.964 178.077 281.167 178.077C278.019 178.077 275.256 177.109 272.852 175.155C270.448 173.202 269.25 170.036 269.25 165.65C269.25 161.539 270.331 158.381 272.5 156.192C274.668 153.994 277.479 152.892 280.94 152.892C282.991 152.9 284.839 153.278 286.483 154.018ZM277.252 159.381C276.383 160.279 275.835 161.507 275.608 163.051H286.24C286.123 161.405 285.583 160.153 284.596 159.302C283.618 158.452 282.396 158.019 280.94 158.019C279.35 158.027 278.121 158.475 277.252 159.381Z" fill="black"/>
<path d="M314.803 154.9C316.353 156.184 317.12 158.318 317.12 161.295V177.282H310.794V162.839C310.794 161.594 310.63 160.633 310.301 159.964C309.698 158.743 308.555 158.129 306.864 158.129C304.789 158.129 303.356 159.027 302.589 160.807C302.181 161.752 301.986 162.957 301.986 164.422V177.274H295.816V153.577H301.79V157.034C302.581 155.814 303.332 154.94 304.029 154.404C305.298 153.443 306.903 152.963 308.837 152.963C311.272 152.971 313.252 153.617 314.803 154.9Z" fill="black"/>
<path d="M320.432 158.176V153.758H323.728V147.135H329.828V153.758H333.664V158.176H329.828V170.722C329.828 171.698 329.953 172.305 330.196 172.541C330.438 172.785 331.19 172.903 332.45 172.903C332.638 172.903 332.834 172.903 333.046 172.895C333.257 172.887 333.461 172.872 333.664 172.864V177.502L330.736 177.613C327.823 177.715 325.827 177.203 324.762 176.085C324.065 175.376 323.721 174.273 323.721 172.793V158.176H320.432Z" fill="black"/>
<path d="M343.929 145.174H337.759V177.282H343.929V145.174Z" fill="black"/>
<path d="M350.881 181.834L351.656 181.873C352.259 181.897 352.839 181.881 353.387 181.81C353.935 181.739 354.397 181.574 354.78 181.314C355.141 181.07 355.477 180.55 355.79 179.762C356.096 178.983 356.237 178.502 356.19 178.321L347.515 153.538H354.381L359.533 171.052L364.403 153.538H370.964L362.868 176.888C361.31 181.393 360.073 184.181 359.157 185.267C358.249 186.354 356.425 186.89 353.692 186.89C353.144 186.89 352.706 186.882 352.377 186.882C352.04 186.874 351.547 186.85 350.881 186.803V181.834Z" fill="black"/>
<path d="M406.62 174.376C404.623 176.849 401.601 178.085 397.545 178.085C393.49 178.085 390.467 176.849 388.471 174.376C386.482 171.903 385.48 168.926 385.48 165.445C385.48 162.019 386.474 159.05 388.471 156.538C390.467 154.034 393.49 152.774 397.545 152.774C401.601 152.774 404.623 154.034 406.62 156.538C408.608 159.05 409.603 162.019 409.603 165.445C409.611 168.926 408.608 171.903 406.62 174.376ZM401.687 170.95C402.65 169.658 403.136 167.823 403.136 165.445C403.136 163.067 402.65 161.24 401.687 159.948C400.716 158.664 399.33 158.027 397.53 158.027C395.721 158.027 394.335 158.664 393.364 159.948C392.386 161.232 391.9 163.067 391.9 165.445C391.9 167.823 392.386 169.658 393.364 170.95C394.335 172.234 395.721 172.879 397.53 172.879C399.33 172.879 400.716 172.234 401.687 170.95Z" fill="black"/>
<path d="M427.141 152.986C427.219 152.994 427.392 153.002 427.674 153.018V159.381C427.282 159.334 426.938 159.31 426.632 159.295C426.335 159.279 426.084 159.271 425.896 159.271C423.414 159.271 421.747 160.082 420.893 161.712C420.416 162.626 420.181 164.036 420.181 165.934V177.282H413.964V153.538H419.852V157.672C420.807 156.089 421.637 155.01 422.342 154.428C423.5 153.451 424.996 152.971 426.844 152.971C426.961 152.971 427.063 152.979 427.141 152.986Z" fill="black"/>
<path d="M442.964 153.514C444.468 154.136 445.674 155.286 446.597 156.956V153.538H452.618V176.061C452.618 179.125 452.109 181.44 451.084 182.991C449.322 185.661 445.94 187 440.944 187C437.93 187 435.472 186.401 433.561 185.212C431.659 184.023 430.602 182.243 430.398 179.873H437.116C437.288 180.605 437.57 181.125 437.961 181.44C438.627 182.007 439.747 182.291 441.32 182.291C443.544 182.291 445.024 181.542 445.775 180.046C446.269 179.085 446.511 177.471 446.511 175.211V173.691C445.924 174.707 445.282 175.471 444.609 175.982C443.379 176.927 441.79 177.392 439.817 177.392C436.787 177.392 434.368 176.329 432.559 174.179C430.743 172.037 429.842 169.139 429.842 165.477C429.842 161.949 430.719 158.987 432.457 156.585C434.203 154.183 436.67 152.979 439.872 152.979C441.054 152.971 442.088 153.152 442.964 153.514ZM445.063 170.541C446.057 169.446 446.55 167.698 446.55 165.303C446.55 163.051 446.081 161.342 445.141 160.161C444.202 158.987 442.933 158.397 441.359 158.397C439.206 158.397 437.719 159.421 436.897 161.468C436.458 162.555 436.247 163.902 436.247 165.5C436.247 166.878 436.482 168.107 436.936 169.186C437.773 171.194 439.269 172.194 441.422 172.194C442.855 172.186 444.076 171.635 445.063 170.541Z" fill="black"/>
<path d="M467.729 162.839C468.88 162.697 469.702 162.508 470.196 162.295C471.08 161.917 471.527 161.326 471.527 160.531C471.527 159.562 471.19 158.885 470.509 158.515C469.828 158.145 468.826 157.964 467.51 157.964C466.03 157.964 464.989 158.326 464.371 159.05C463.932 159.586 463.635 160.318 463.494 161.232H457.535C457.668 159.153 458.248 157.452 459.274 156.113C460.91 154.018 463.721 152.971 467.714 152.971C470.313 152.971 472.615 153.483 474.627 154.522C476.647 155.554 477.649 157.499 477.649 160.358V171.257C477.649 172.013 477.665 172.927 477.696 173.998C477.743 174.809 477.861 175.36 478.064 175.652C478.268 175.943 478.566 176.179 478.973 176.368V177.282H472.255C472.067 176.801 471.934 176.353 471.863 175.935C471.793 175.51 471.738 175.037 471.691 174.494C470.83 175.423 469.843 176.211 468.732 176.864C467.393 177.636 465.882 178.022 464.198 178.022C462.045 178.022 460.276 177.408 458.874 176.179C457.473 174.951 456.768 173.218 456.768 170.966C456.768 168.044 457.896 165.934 460.15 164.626C461.388 163.91 463.204 163.406 465.608 163.098L467.729 162.839ZM471.503 165.737C471.112 165.989 470.705 166.186 470.305 166.335C469.898 166.493 469.35 166.634 468.645 166.76L467.244 167.02C465.929 167.257 464.981 167.54 464.402 167.871C463.431 168.438 462.946 169.312 462.946 170.501C462.946 171.564 463.243 172.328 463.838 172.801C464.425 173.273 465.154 173.51 466.007 173.51C467.354 173.51 468.599 173.116 469.734 172.336C470.869 171.549 471.456 170.123 471.503 168.044V165.737Z" fill="black"/>
<path d="M502.078 154.9C503.628 156.184 504.395 158.318 504.395 161.295V177.282H498.069V162.839C498.069 161.594 497.905 160.633 497.576 159.964C496.973 158.743 495.83 158.129 494.139 158.129C492.064 158.129 490.631 159.027 489.864 160.807C489.456 161.752 489.261 162.957 489.261 164.422V177.274H483.083V153.577H489.057V157.034C489.848 155.814 490.6 154.94 491.296 154.404C492.565 153.443 494.17 152.963 496.104 152.963C498.547 152.971 500.527 153.617 502.078 154.9Z" fill="black"/>
<path d="M516.476 150.71H510.22V144.977H516.476V150.71ZM510.22 153.538H516.476V177.282H510.22V153.538Z" fill="black"/>
<path d="M527.242 169.698C527.375 170.8 527.657 171.588 528.095 172.052C528.863 172.879 530.28 173.297 532.355 173.297C533.576 173.297 534.539 173.116 535.259 172.753C535.98 172.391 536.34 171.848 536.34 171.123C536.34 170.422 536.05 169.895 535.471 169.532C534.891 169.17 532.738 168.54 529.019 167.658C526.334 166.989 524.447 166.154 523.351 165.154C522.254 164.169 521.706 162.744 521.706 160.885C521.706 158.696 522.56 156.814 524.274 155.231C525.989 153.656 528.401 152.868 531.509 152.868C534.461 152.868 536.864 153.459 538.728 154.64C540.591 155.829 541.656 157.869 541.93 160.775H535.76C535.674 159.972 535.447 159.342 535.087 158.885C534.406 158.042 533.247 157.617 531.611 157.617C530.264 157.617 529.301 157.83 528.729 158.255C528.158 158.672 527.868 159.168 527.868 159.735C527.868 160.444 528.174 160.964 528.784 161.279C529.395 161.618 531.54 162.185 535.228 162.996C537.686 163.579 539.526 164.453 540.756 165.634C541.969 166.823 542.58 168.312 542.58 170.099C542.58 172.454 541.703 174.376 539.965 175.864C538.219 177.353 535.526 178.093 531.885 178.093C528.166 178.093 525.418 177.305 523.648 175.73C521.879 174.155 520.994 172.147 520.994 169.706H527.242V169.698Z" fill="black"/>
<path d="M562.498 154.018C564.15 154.766 565.505 155.932 566.577 157.53C567.54 158.94 568.167 160.578 568.456 162.437C568.621 163.531 568.691 165.099 568.66 167.146H551.466C551.56 169.532 552.39 171.202 553.933 172.155C554.872 172.753 556.015 173.045 557.339 173.045C558.74 173.045 559.891 172.683 560.76 171.958C561.245 171.572 561.668 171.021 562.036 170.32H568.331C568.167 171.73 567.407 173.163 566.045 174.612C563.931 176.92 560.964 178.077 557.166 178.077C554.027 178.077 551.255 177.109 548.851 175.155C546.448 173.202 545.25 170.036 545.25 165.65C545.25 161.539 546.33 158.381 548.499 156.192C550.668 153.994 553.479 152.892 556.939 152.892C559.006 152.9 560.854 153.278 562.498 154.018ZM553.267 159.381C552.398 160.279 551.85 161.507 551.623 163.051H562.255C562.146 161.405 561.598 160.153 560.611 159.302C559.625 158.452 558.411 158.019 556.955 158.019C555.365 158.027 554.136 158.475 553.267 159.381Z" fill="black"/>
<path d="M584.304 153.924C585.415 154.554 586.324 155.428 587.013 156.546V145.221H593.268V177.29H587.271V173.998C586.386 175.4 585.384 176.431 584.257 177.069C583.129 177.707 581.728 178.03 580.052 178.03C577.296 178.03 574.979 176.912 573.092 174.667C571.205 172.423 570.265 169.548 570.265 166.028C570.265 161.972 571.189 158.791 573.053 156.467C574.908 154.144 577.39 152.979 580.491 152.979C581.923 152.971 583.192 153.286 584.304 153.924ZM585.815 170.832C586.723 169.525 587.177 167.832 587.177 165.752C587.177 162.854 586.449 160.775 584.993 159.523C584.1 158.767 583.059 158.389 581.877 158.389C580.068 158.389 578.745 159.074 577.899 160.444C577.053 161.815 576.631 163.516 576.631 165.548C576.631 167.745 577.061 169.501 577.915 170.808C578.776 172.124 580.076 172.777 581.822 172.777C583.583 172.793 584.907 172.139 585.815 170.832Z" fill="black"/>
<path d="M634.89 145.174V150.86H625.346V177.282H618.628V150.86H609.037V145.174H634.89Z" fill="black"/>
<path d="M662.043 150.86H645.5V157.68H660.658V163.256H645.5V171.509H662.826V177.282H638.978V145.174H662.043V150.86Z" fill="black"/>
<path d="M687.074 145.867C689.313 146.607 691.122 147.97 692.516 149.946C693.628 151.545 694.379 153.27 694.786 155.128C695.193 156.987 695.397 158.759 695.397 160.444C695.397 164.713 694.544 168.328 692.845 171.297C690.535 175.289 686.965 177.29 682.142 177.29H668.377V145.182H682.142C684.115 145.206 685.759 145.434 687.074 145.867ZM674.845 150.75V171.706H681.006C684.162 171.706 686.354 170.147 687.599 167.02C688.28 165.303 688.617 163.264 688.617 160.901C688.617 157.633 688.108 155.128 687.09 153.372C686.072 151.624 684.044 150.75 681.006 150.75H674.845Z" fill="black"/>
<path d="M727.6 154.018C729.252 154.766 730.607 155.932 731.679 157.53C732.642 158.94 733.269 160.578 733.558 162.437C733.723 163.531 733.793 165.099 733.762 167.146H716.576C716.67 169.532 717.492 171.202 719.042 172.155C719.982 172.753 721.117 173.045 722.448 173.045C723.85 173.045 725.001 172.683 725.878 171.958C726.363 171.572 726.786 171.021 727.146 170.32H733.449C733.284 171.73 732.525 173.163 731.162 174.612C729.041 176.92 726.081 178.077 722.284 178.077C719.136 178.077 716.372 177.109 713.969 175.155C711.565 173.202 710.367 170.036 710.367 165.65C710.367 161.539 711.448 158.381 713.616 156.192C715.785 153.994 718.596 152.892 722.057 152.892C724.108 152.9 725.956 153.278 727.6 154.018ZM718.369 159.381C717.5 160.279 716.952 161.507 716.725 163.051H727.357C727.248 161.405 726.7 160.153 725.713 159.302C724.734 158.452 723.513 158.019 722.057 158.019C720.467 158.027 719.238 158.475 718.369 159.381Z" fill="black"/>
<path d="M751.426 153.538H758.057L749.531 177.282H743.025L734.561 153.538H741.49L746.399 171.052L751.426 153.538Z" fill="black"/>
<path d="M776.934 154.018C778.586 154.766 779.94 155.932 781.013 157.53C781.976 158.94 782.602 160.578 782.892 162.437C783.056 163.531 783.127 165.099 783.096 167.146H765.902C765.996 169.532 766.826 171.202 768.368 172.155C769.308 172.753 770.443 173.045 771.774 173.045C773.176 173.045 774.327 172.683 775.203 171.958C775.681 171.572 776.104 171.021 776.472 170.32H782.775C782.61 171.73 781.851 173.163 780.488 174.612C778.374 176.92 775.415 178.077 771.61 178.077C768.47 178.077 765.698 177.109 763.295 175.155C760.891 173.202 759.693 170.036 759.693 165.65C759.693 161.539 760.774 158.381 762.942 156.192C765.111 153.994 767.922 152.892 771.383 152.892C773.434 152.9 775.29 153.278 776.934 154.018ZM767.703 159.381C766.834 160.279 766.286 161.507 766.059 163.051H776.691C776.581 161.405 776.033 160.153 775.047 159.302C774.068 158.452 772.847 158.019 771.39 158.019C769.801 158.027 768.572 158.475 767.703 159.381Z" fill="black"/>
<path d="M805.253 154.9C806.804 156.184 807.571 158.318 807.571 161.295V177.282H801.245V162.839C801.245 161.594 801.08 160.633 800.751 159.964C800.149 158.743 799.005 158.129 797.314 158.129C795.239 158.129 793.807 159.027 793.039 160.807C792.632 161.752 792.436 162.957 792.436 164.422V177.274H786.259V153.577H792.233V157.034C793.024 155.814 793.775 154.94 794.472 154.404C795.741 153.443 797.346 152.963 799.279 152.963C801.722 152.971 803.703 153.617 805.253 154.9Z" fill="black"/>
<path d="M810.883 158.176V153.758H814.171V147.135H820.278V153.758H824.115V158.176H820.278V170.722C820.278 171.698 820.403 172.305 820.646 172.541C820.889 172.785 821.641 172.903 822.901 172.903C823.089 172.903 823.285 172.903 823.496 172.895C823.708 172.887 823.911 172.872 824.115 172.864V177.502L821.186 177.613C818.274 177.715 816.277 177.203 815.212 176.085C814.516 175.376 814.171 174.273 814.171 172.793V158.176H810.883Z" fill="black"/>
<path d="M63.5838 162.13H40.1343V156.396H63.5838V162.13ZM63.5838 172.297H40.1343V166.571H63.5838V172.297Z" fill="black"/>
<path d="M490.318 0H507.12L466.727 111.326H450.849L410.464 0H427.11L458.718 94.89H459.023L490.318 0Z" fill="black"/>
<path d="M539.174 0H524.22V111.326H539.174V0Z" fill="black"/>
<path d="M555.201 0H645.077V13.333H607.612V111.326H592.666V13.333H555.201V0Z" fill="black"/>
<path d="M675.44 111.326H660.485V0H710.281C730.787 0 743.111 13.333 743.111 31.3202C743.111 46.8268 734.326 64.3415 710.281 64.3415H675.44V111.326ZM675.44 51.4811H705.192C718.604 51.4811 727.702 46.5196 727.702 31.4777C727.702 17.3651 718.15 12.8683 705.811 12.8683H675.44V51.4811Z" fill="black"/>
<path d="M812.629 111.334V99.5443L812.323 99.2372C806.616 108.695 799.679 113.657 786.729 113.657C774.859 113.657 760.523 107.916 760.523 88.5346V30.2334H774.092V84.0377C774.092 97.3707 780.872 101.868 789.665 101.868C806.772 101.868 811.869 86.676 811.869 74.8866V30.2334H825.43V111.326H812.629V111.334Z" fill="black"/>
<path d="M911.438 111.334H897.869V61.404C897.869 47.2914 893.861 40.1563 880.605 40.1563C872.901 40.1563 859.332 45.1178 859.332 67.1372V111.326H845.764V30.2334H858.557V41.7078H858.862C861.791 37.3684 869.346 27.9102 883.22 27.9102C895.701 27.9102 911.43 33.0291 911.43 56.1275V111.334H911.438Z" fill="black"/>
<path d="M999.92 85.9042C999.458 89.7788 995.754 101.253 985.584 108.081C981.88 110.562 976.642 113.665 963.692 113.665C941.034 113.665 927.622 96.4571 927.622 73.0359C927.622 47.9135 939.648 27.9102 966.315 27.9102C989.592 27.9102 1001 46.5117 1001 75.2016H942.114C942.114 92.1021 949.975 101.875 965.548 101.875C978.341 101.875 985.897 91.9524 986.359 85.9042H999.92ZM986.97 64.3494C986.202 51.7882 980.956 40.1642 964.46 40.1642C951.972 40.1642 942.106 51.7882 942.106 64.3494H986.97Z" fill="black"/>
<path d="M34.6223 177.754H27.5992L22.3847 168.304L16.8258 177.754H10.1158L19.0102 163.595L10.6091 150.057H17.4756L22.3847 159.011L27.4113 150.057H34.0508L25.6418 163.366L34.6223 177.754Z" fill="#E62B1E"/>
<path d="M0 1.11841H103.608V30.966H70.325V114.807H33.2834V30.966H0V1.11841Z" fill="#E62B1E"/>
<path d="M110.397 114.807V1.12622H202.543V27.6504H147.446V43.913H202.871V70.445H147.446V88.2826H202.605V114.807H110.397Z" fill="#E62B1E"/>
<path d="M209.417 114.807V1.12622H259.025C295.448 1.12622 318.052 18.1763 318.052 55.6C318.052 98.3867 294.352 114.807 258.085 114.807H209.417ZM246.466 88.2826H254.319C271.584 88.2826 281.003 79.1236 281.003 57.6475C281.003 33.9664 273.306 27.6425 253.537 27.6425H246.466V88.2826Z" fill="#E62B1E"/>
<path d="M346.489 68.9645H321.395L345.541 33.3364L323.76 0.385986H348.853L358.515 17.9086L368.263 0.385986H393.364L370.353 33.3364L393.552 68.9645H368.459L357.474 49.725L346.489 68.9645Z" fill="#E62B1E"/>
</svg>
