<svg width="502" height="152" viewBox="0 0 502 152" fill="none" xmlns="http://www.w3.org/2000/svg">
<path d="M0 0.973145H138.406V40.6235H93.9439V152H44.4618V40.6235H0V0.973145Z" fill="#E62B1E"/>
<path d="M141.474 152V0.983398H264.567V36.2189H190.966V57.8225H265.007V93.0685H190.966V116.765H264.651V152H141.474Z" fill="#E62B1E"/>
<path d="M267.75 152V0.983398H334.019C382.675 0.983398 412.871 23.6333 412.871 73.3479C412.871 130.187 381.211 152 332.764 152H267.75ZM317.243 116.765H327.733C350.796 116.765 363.378 104.597 363.378 76.068C363.378 44.6092 353.097 36.2084 326.688 36.2084H317.243V116.765Z" fill="#E62B1E"/>
<path d="M438.858 91.1016H405.337L437.593 43.7723L408.496 0H442.017L454.924 23.2776L467.945 0H501.477L470.738 43.7723L501.728 91.1016H468.207L453.533 65.5434L438.858 91.1016Z" fill="#E62B1E"/>
</svg>
