<svg width="69" height="86" viewBox="0 0 69 86" fill="none" xmlns="http://www.w3.org/2000/svg">
<path d="M25.0994 85.5154H23.4537V63.873L11.7476 50.6971V31.3628H13.3829V50.0761L25.0994 63.2519V85.5154Z" fill="white"/>
<path d="M32.4998 85.5154H30.8645V60.2815L23.4537 47.1056V21.6025H25.0994V46.6812L32.4998 59.8571V85.5154Z" fill="white"/>
<path d="M37.7784 85.5155H36.1431V63.2521L47.8492 50.0762V23.062H49.4949V50.6972L37.7784 63.8731V85.5155Z" fill="white"/>
<path d="M37.7888 10.3831H36.1431V63.5627H37.7888V10.3831Z" fill="white"/>
<path d="M4.59696 41.2736L3.44061 42.4299L11.9815 50.9708L13.1379 49.8145L4.59696 41.2736Z" fill="white"/>
<path d="M64.3038 45.654L57.5853 52.3726L58.7416 53.5289L65.4602 46.8104L64.3038 45.654Z" fill="white"/>
<path d="M4.02625 45.8738C6.24989 45.8738 8.0525 44.0712 8.0525 41.8475C8.0525 39.6239 6.24989 37.8213 4.02625 37.8213C1.80261 37.8213 0 39.6239 0 41.8475C0 44.0712 1.80261 45.8738 4.02625 45.8738Z" fill="white"/>
<path d="M64.8857 50.252C67.1094 50.252 68.912 48.4494 68.912 46.2257C68.912 44.0021 67.1094 42.1995 64.8857 42.1995C62.6621 42.1995 60.8595 44.0021 60.8595 46.2257C60.8595 48.4494 62.6621 50.252 64.8857 50.252Z" fill="white"/>
<path d="M48.6669 27.0884C50.8905 27.0884 52.6931 25.2858 52.6931 23.0621C52.6931 20.8385 50.8905 19.0359 48.6669 19.0359C46.4432 19.0359 44.6406 20.8385 44.6406 23.0621C44.6406 25.2858 46.4432 27.0884 48.6669 27.0884Z" fill="white"/>
<path d="M36.9608 20.2053C42.3856 20.2053 46.7832 15.8077 46.7832 10.3829C46.7832 4.95819 42.3856 0.560547 36.9608 0.560547C31.5361 0.560547 27.1384 4.95819 27.1384 10.3829C27.1384 15.8077 31.5361 20.2053 36.9608 20.2053Z" fill="white"/>
<path d="M12.5653 38.1627C16.3209 38.1627 19.3654 35.1182 19.3654 31.3626C19.3654 27.607 16.3209 24.5625 12.5653 24.5625C8.80966 24.5625 5.76514 27.607 5.76514 31.3626C5.76514 35.1182 8.80966 38.1627 12.5653 38.1627Z" fill="white"/>
<path d="M24.7578 52.674C28.5134 52.674 31.5579 49.6295 31.5579 45.8739C31.5579 42.1182 28.5134 39.0737 24.7578 39.0737C21.0022 39.0737 17.9577 42.1182 17.9577 45.8739C17.9577 49.6295 21.0022 52.674 24.7578 52.674Z" fill="white"/>
<path d="M48.6669 56.3898C52.4225 56.3898 55.4671 53.3453 55.4671 49.5897C55.4671 45.8341 52.4225 42.7896 48.6669 42.7896C44.9113 42.7896 41.8668 45.8341 41.8668 49.5897C41.8668 53.3453 44.9113 56.3898 48.6669 56.3898Z" fill="white"/>
<path d="M46.1622 85.5155H44.5269V67.5889L57.3405 52.6431V37.5731L61.8946 30.8972L63.2505 31.8184L58.9862 38.0803V53.2538L46.1622 68.1996V85.5155Z" fill="white"/>
<path d="M61.5219 36.486C64.3515 36.486 66.6453 34.1922 66.6453 31.3626C66.6453 28.5331 64.3515 26.2393 61.5219 26.2393C58.6924 26.2393 56.3986 28.5331 56.3986 31.3626C56.3986 34.1922 58.6924 36.486 61.5219 36.486Z" fill="white"/>
<path d="M24.2713 26.7258C27.1009 26.7258 29.3947 24.4319 29.3947 21.6024C29.3947 18.7728 27.1009 16.479 24.2713 16.479C21.4418 16.479 19.1479 18.7728 19.1479 21.6024C19.1479 24.4319 21.4418 26.7258 24.2713 26.7258Z" fill="white"/>
</svg>
