<svg width="87" height="86" viewBox="0 0 87 86" fill="none" xmlns="http://www.w3.org/2000/svg">
<path d="M76.2188 7.30811L8.07472 75.4521L10.7314 78.1088L78.8754 9.96479L76.2188 7.30811Z" fill="white"/>
<path d="M10.7525 7.32974L8.09595 9.98633L76.2401 78.1305L78.8967 75.4739L10.7525 7.32974Z" fill="white"/>
<path d="M77.5703 17.5764C82.2691 17.5764 86.0782 13.7673 86.0782 9.06846C86.0782 4.36967 82.2691 0.560547 77.5703 0.560547C72.8715 0.560547 69.0624 4.36967 69.0624 9.06846C69.0624 13.7673 72.8715 17.5764 77.5703 17.5764Z" fill="white"/>
<path d="M9.4759 17.5764C14.1747 17.5764 17.9838 13.7673 17.9838 9.06846C17.9838 4.36967 14.1747 0.560547 9.4759 0.560547C4.77711 0.560547 0.968018 4.36967 0.968018 9.06846C0.968018 13.7673 4.77711 17.5764 9.4759 17.5764Z" fill="white"/>
<path d="M77.5703 85.0703C82.2691 85.0703 86.0782 81.2612 86.0782 76.5624C86.0782 71.8636 82.2691 68.0544 77.5703 68.0544C72.8715 68.0544 69.0624 71.8636 69.0624 76.5624C69.0624 81.2612 72.8715 85.0703 77.5703 85.0703Z" fill="white"/>
<path d="M9.4759 85.0703C14.1747 85.0703 17.9838 81.2612 17.9838 76.5624C17.9838 71.8636 14.1747 68.0544 9.4759 68.0544C4.77711 68.0544 0.968018 71.8636 0.968018 76.5624C0.968018 81.2612 4.77711 85.0703 9.4759 85.0703Z" fill="white"/>
<path d="M43.3627 57.4349C50.8453 57.4349 56.9112 51.369 56.9112 43.8864C56.9112 36.4038 50.8453 30.3379 43.3627 30.3379C35.88 30.3379 29.8141 36.4038 29.8141 43.8864C29.8141 51.369 35.88 57.4349 43.3627 57.4349Z" fill="white"/>
</svg>
