<svg width="90" height="90" viewBox="0 0 90 90" fill="none" xmlns="http://www.w3.org/2000/svg">
<path d="M27 75H12V30H27V75ZM19.503 24C15.354 24 12 20.637 12 16.497C12 12.357 15.36 9 19.503 9C23.637 9 27 12.363 27 16.497C27 20.637 23.637 24 19.503 24ZM81 75H66.579V53.1C66.579 47.877 66.48 41.16 59.082 41.16C51.573 41.16 50.418 46.848 50.418 52.722V75H36V29.967H49.842V36.12H50.037C51.963 32.58 56.67 28.848 63.69 28.848C78.3 28.848 81 38.175 81 50.301C81 50.301 81 75 81 75Z" fill="white"/>
</svg>
