<svg width="90" height="90" viewBox="0 0 90 90" fill="none" xmlns="http://www.w3.org/2000/svg">
<path d="M84 20.8111C81.129 22.0861 78.045 22.9441 74.808 23.3311C78.114 21.3511 80.649 18.2161 81.843 14.4781C78.753 16.3111 75.327 17.6431 71.679 18.3631C68.76 15.2521 64.602 13.3081 60 13.3081C51.162 13.3081 43.998 20.4751 43.998 29.3101C43.998 30.5641 44.142 31.7881 44.412 32.9551C31.113 32.2891 19.323 25.9171 11.427 16.2331C10.053 18.5971 9.26401 21.3451 9.26401 24.2821C9.26401 29.8321 12.087 34.7311 16.38 37.5991C13.758 37.5151 11.289 36.7951 9.13201 35.5981C9.13201 35.6671 9.13201 35.7301 9.13201 35.7991C9.13201 43.5541 14.646 50.0221 21.969 51.4891C20.628 51.8551 19.212 52.0501 17.751 52.0501C16.722 52.0501 15.717 51.9481 14.742 51.7651C16.779 58.1221 22.689 62.7511 29.691 62.8801C24.216 67.1731 17.316 69.7321 9.81601 69.7321C8.52601 69.7321 7.25101 69.6571 5.99701 69.5071C13.08 74.0461 21.489 76.6951 30.528 76.6951C59.964 76.6951 76.056 52.3111 76.056 31.1641C76.056 30.4711 76.041 29.7811 76.011 29.0941C79.14 26.8351 81.855 24.0181 84 20.8111Z" fill="white"/>
</svg>
