<svg width="90" height="90" viewBox="0 0 90 90" fill="none" xmlns="http://www.w3.org/2000/svg">
<path d="M45 12C32.442 12 16.1426 15.1465 16.1426 15.1465L16.1016 15.1934C10.382 16.1081 6 21.0229 6 27V45V45.0059V63V63.0059C6.00558 65.8605 7.02861 68.6196 8.88539 70.7878C10.7422 72.956 13.3111 74.3913 16.1309 74.8359L16.1426 74.8535C16.1426 74.8535 32.442 78.0059 45 78.0059C57.558 78.0059 73.8574 74.8535 73.8574 74.8535L73.8633 74.8477C76.6861 74.404 79.258 72.9675 81.1162 70.7968C82.9744 68.626 83.997 65.8633 84 63.0059V63V45.0059V45V27C83.9958 24.1444 82.9734 21.3839 81.1165 19.2144C79.2596 17.045 76.6899 15.6089 73.8691 15.1641L73.8574 15.1465C73.8574 15.1465 57.558 12 45 12ZM36 31.1953L60 45L36 58.8047V31.1953Z" fill="white"/>
</svg>
